<svg fill="#FA5252" xmlns="http://www.w3.org/2000/svg"  viewBox="0 0 30 30" width="50px" height="50px"><path d="M 8 7 A 1.0001 1.0001 0 0 0 7.8886719 7.0058594 C 3.5337373 7.0663982 0 10.631126 0 15 C 0 19.371502 3.5379402 22.937792 7.8964844 22.994141 A 1.0001 1.0001 0 0 0 8 23 L 22 23 C 26.052135 23 29.281986 19.915394 29.796875 16 L 30 16 L 30 15 C 30 10.593562 26.406438 7 22 7 L 8 7 z M 8 9 C 11.325553 9 14 11.674447 14 15 C 14 18.325553 11.325553 21 8 21 C 4.6744469 21 2 18.325553 2 15 C 2 11.674447 4.6744469 9 8 9 z M 13.271484 9 L 22 9 C 25.325562 9 28 11.674438 28 15 C 28 18.325562 25.325562 21 22 21 L 13.271484 21 C 14.93967 19.532053 16 17.387963 16 15 C 16 12.612037 14.93967 10.467947 13.271484 9 z"/></svg>